<?xml version="1.0" encoding="utf-8"?>
<!-- Generator: Adobe Illustrator 23.0.0, SVG Export Plug-In . SVG Version: 6.00 Build 0)  -->
<svg version="1.1" id="Layer_1" xmlns="http://www.w3.org/2000/svg" xmlns:xlink="http://www.w3.org/1999/xlink" x="0px" y="0px"
	 viewBox="0 0 100 125" style="enable-background:new 0 0 100 125;" xml:space="preserve">
<style type="text/css">
	.st0{fill:#007FAD;}
</style>
<g>
	<circle class="st0" cx="22.9" cy="45.1" r="6.6"/>
	<path class="st0" d="M73,62.1L59.8,47.7c-0.5-0.5-1.5-0.5-2,0L34.9,72.6L24,60.7c-0.3-0.3-0.6-0.4-1-0.4s-0.7,0.2-1,0.4L13.4,70
		v9.6H73V62.1z"/>
	<path class="st0" d="M96.9,17.1c-0.5-0.6-1.1-0.9-1.9-1L19.3,9.5c-1.5-0.2-2.8,1-3,2.5l-1.2,13.6h-10c-1.5,0-2.7,1.2-2.7,2.7v59.4
		c0,1.5,1.2,2.7,2.7,2.7h76c1.5,0,2.7-1.2,2.7-2.7v-7.5l5.4,0.5c0.1,0,0.2,0,0.2,0c0.6,0,1.3-0.2,1.8-0.6c0.6-0.5,0.9-1.1,1-1.9
		l5.2-59.1C97.6,18.4,97.3,17.7,96.9,17.1z M78.5,85H8V31.1h70.5V85z M87.1,75.1l-3.2-0.3V28.4c0-1.5-1.2-2.7-2.7-2.7H20.7l0.9-10.4
		l70.2,6.2L87.1,75.1z"/>
</g>
</svg>
