<?xml version="1.0" encoding="utf-8"?>
<!-- Generator: Adobe Illustrator 23.0.0, SVG Export Plug-In . SVG Version: 6.00 Build 0)  -->
<svg version="1.1" id="Layer_1" xmlns="http://www.w3.org/2000/svg" xmlns:xlink="http://www.w3.org/1999/xlink" x="0px" y="0px"
	 viewBox="0 0 550 687.5" style="enable-background:new 0 0 550 687.5;" xml:space="preserve">
<style type="text/css">
	.st0{fill:#007FAD;}
</style>
<g>
	<path class="st0" d="M136.85,413.06c1.33-0.35,2.67-0.55,4.04-0.55l309.03,0.08h5.5c9.38,0,16.99-7.61,16.99-16.99V35.77
		c0-9.38-7.61-16.77-16.99-16.77H128.57c-28.16,0-50.98,23.04-50.98,51.2v409.82c0,28.16,22.82,50.98,50.98,50.98h329.39
		c7.99,0,14.46-6.47,14.46-14.46c0-7.99-6.47-14.46-14.46-14.46h-8.03H140.9c-3.75,0-7.35-0.6-10.73-1.7
		c-18.81-5.26-32.65-22.54-32.65-43C97.52,434.56,114.73,415.69,136.85,413.06z M200.54,103.58h148.93c5.52,0,10,4.48,10,10
		s-4.48,10-10,10H200.54c-5.52,0-10-4.48-10-10C190.54,108.06,195.01,103.58,200.54,103.58z M163.54,156.06h222.91
		c5.52,0,10,4.48,10,10s-4.48,10-10,10h-222.9c-5.52,0-10-4.48-10-10C153.54,160.54,158.02,156.06,163.54,156.06z M163.54,208.53
		h222.91c5.52,0,10,4.48,10,10s-4.48,10-10,10h-222.9c-5.52,0-10-4.48-10-10C153.54,213.01,158.02,208.53,163.54,208.53z"/>
	<g>
		<path class="st0" d="M441.2,432.81l-299.03-0.08c-10.03,0-18.68,6.03-22.53,14.65H441.2V432.81L441.2,432.81z"/>
		<path class="st0" d="M142.17,482.03H441.2v-14.65H119.64C123.48,476,132.13,482.03,142.17,482.03z"/>
	</g>
</g>
</svg>
