<?xml version="1.0" encoding="utf-8"?>
<!-- Generator: Adobe Illustrator 23.0.0, SVG Export Plug-In . SVG Version: 6.00 Build 0)  -->
<svg version="1.1" id="Layer_1" xmlns="http://www.w3.org/2000/svg" xmlns:xlink="http://www.w3.org/1999/xlink" x="0px" y="0px"
	 viewBox="0 0 20 25" style="enable-background:new 0 0 20 25;" xml:space="preserve">
<style type="text/css">
	.st0{fill:#007FAD;}
</style>
<g>
	<g transform="translate(-170.000000, -170.000000)">
		<g transform="translate(20.000000, 170.000000)">
			<path class="st0" d="M166,10.17c-0.31-0.11-0.65-0.17-1-0.17c-1.65,0-3,1.34-3,3c0,1.65,1.34,3,3,3c1.65,0,3-1.34,3-3V2.95
				c0-0.68-0.51-1.08-1.14-0.91l-9.72,1.81C156.51,4.02,156,4.71,156,5.38v6.79c-0.31-0.11-0.65-0.17-1-0.17c-1.65,0-3,1.34-3,3
				c0,1.65,1.34,3,3,3c1.65,0,3-1.34,3-3V7.94l8-1.49V10.17z M165,14c0.55,0,1-0.45,1-1s-0.45-1-1-1s-1,0.45-1,1S164.45,14,165,14z
				 M155,16c0.55,0,1-0.45,1-1s-0.45-1-1-1s-1,0.45-1,1S154.45,16,155,16z"/>
		</g>
	</g>
</g>
</svg>
