<?xml version="1.0" encoding="utf-8"?>
<!-- Generator: Adobe Illustrator 23.0.0, SVG Export Plug-In . SVG Version: 6.00 Build 0)  -->
<svg version="1.1" id="Layer_1" xmlns="http://www.w3.org/2000/svg" xmlns:xlink="http://www.w3.org/1999/xlink" x="0px" y="0px"
	 viewBox="0 0 64 80" style="enable-background:new 0 0 64 80;" xml:space="preserve">
<style type="text/css">
	.st0{fill:#007FAD;}
</style>
<path class="st0" d="M46.5,29h9c1.1,0,2-0.9,2-2v-3c0-0.53-0.22-1.04-0.59-1.42l-10-10C46.54,12.21,46.03,12,45.5,12h-33
	c-3.31,0-6,2.69-6,6v44c0,3.31,2.69,6,6,6h39c3.31,0,6-2.69,6-6V35c0-1.1-0.9-2-2-2s-2,0.9-2,2v27c0,1.1-0.9,2-2,2h-39
	c-1.1,0-2-0.9-2-2V18c0-1.1,0.9-2,2-2h28v7C40.5,26.31,43.19,29,46.5,29z M53.5,24.83V25h-7c-1.1,0-2-0.9-2-2v-7h0.17L53.5,24.83z"
	/>
<g>
	<path class="st0" d="M31.5,49.33l-0.16-0.07L22,45v3.9c0,1.73,4.25,4.3,9.49,4.3s9.49-2.57,9.49-4.3V45L31.5,49.33z"/>
	<polygon class="st0" points="31.5,31.12 12.88,39.6 31.5,48.07 50.11,39.6 	"/>
	<path class="st0" d="M49.77,46.43v-0.09c0.39-0.25,0.69-0.73,0.69-1.23c0-0.7-0.46-1.32-1.15-1.43V39.6h-0.37v4.1
		c-0.65,0.16-1.19,0.7-1.19,1.36c0,0.5,0.19,0.94,0.58,1.19l-0.04,0.18l-1.38,5.73h2.1h2.1L49.77,46.43z"/>
</g>
</svg>
