<?xml version="1.0" encoding="utf-8"?>
<!-- Generator: Adobe Illustrator 23.0.0, SVG Export Plug-In . SVG Version: 6.00 Build 0)  -->
<svg version="1.1" id="Layer_1" xmlns="http://www.w3.org/2000/svg" xmlns:xlink="http://www.w3.org/1999/xlink" x="0px" y="0px"
	 viewBox="0 0 64 80" style="enable-background:new 0 0 64 80;" xml:space="preserve">
<style type="text/css">
	.st0{fill:#007FAD;}
	.st1{fill:none;stroke:#007FAD;stroke-width:2.4137;}
	.st2{fill:none;stroke:#007FAD;}
	.st3{fill:none;stroke:#007FAD;stroke-linecap:round;stroke-linejoin:round;}
</style>
<path class="st0" d="M46.5,29h9c1.1,0,2-0.9,2-2v-3c0-0.53-0.22-1.04-0.59-1.42l-10-10C46.54,12.21,46.03,12,45.5,12h-33
	c-3.31,0-6,2.69-6,6v44c0,3.31,2.69,6,6,6h39c3.31,0,6-2.69,6-6V35c0-1.1-0.9-2-2-2s-2,0.9-2,2v27c0,1.1-0.9,2-2,2h-39
	c-1.1,0-2-0.9-2-2V18c0-1.1,0.9-2,2-2h28v7C40.5,26.31,43.19,29,46.5,29z M53.5,24.83V25h-7c-1.1,0-2-0.9-2-2v-7h0.17L53.5,24.83z"
	/>
<g>
	<path class="st1" d="M16.33,50.86h31.34 M16.33,57.02h31.34 M16.33,44.7h31.34"/>
	<g>
		<circle class="st2" cx="30.67" cy="36.01" r="2.28"/>
		<polyline class="st3" points="32.96,35.89 32.96,26.98 36.69,28 		"/>
	</g>
</g>
</svg>
